<svg xmlns="http://www.w3.org/2000/svg" xmlns:xlink="http://www.w3.org/1999/xlink" style="vertical-align:-3.255ex" width="19.27ex" height="6.759ex" viewBox="0 -1508.9 8296.7 2910.2"><defs><path id="g" stroke-width="1" d="M56 347q0 13 14 20h637q15-8 15-20 0-11-14-19l-318-1H72q-16 5-16 20zm0-194q0 15 16 20h636q14-10 14-20 0-13-15-20H70q-14 7-14 20z"/><path id="a" stroke-width="1" d="M228 637q-34 0-36 4-1 2-1 8 0 24 11 33 2 1 15 1 54-3 127-3 141 0 162 3h12q6-6 6-9t-2-18q-5-15-9-19h-38q-69-1-81-9-7-4-14-28t-67-264q-16-65-34-138T252 88l-9-36q0-4 9-4t59-2h17q32 0 51 1t49 7 50 18 44 34 42 55q16 30 30 67t17 42q5 3 17 3h13q6-9 6-11t-20-59-44-120-26-74q-2-5-4-6t-16-3-43-1h-76q-65 0-124 1H116Q32 0 32 10q0 7 2 14 5 19 10 21 4 1 15 1h6q27 0 60 3 14 3 19 12 3 4 72 278t69 289q0 7-57 9z"/><path id="c" stroke-width="1" d="M94 250q0 69 10 131t23 107 37 88 38 67 42 52 33 34 25 21h17q14 0 14-9 0-3-17-21t-41-53-49-86-42-138-17-193 17-192 41-139 49-86 42-53 17-21q0-9-15-9h-16l-28 24q-94 85-137 212T94 250z"/><path id="d" stroke-width="1" d="M21 287q1 6 3 16t12 38 20 47 33 37 46 17q36 0 60-18t30-34 6-21q0-2 1-2l11 11q61 64 139 64 54 0 87-27t34-79-38-157-38-127q0-26 17-26 6 0 9 1 29 5 52 38t35 80q2 8 20 8 20 0 20-8 0-1-4-15-8-29-22-57t-46-56-69-27q-47 0-68 27t-21 56q0 19 36 120t37 152q0 59-44 59h-5q-86 0-145-101l-7-12-33-134Q156 26 151 16q-13-27-43-27-13 0-21 6T76 7t-2 10q0 13 38 163t40 163q1 5 1 23 0 39-24 39-38 0-63-100-6-20-6-21-2-6-19-6H27q-6 6-6 9z"/><path id="e" stroke-width="1" d="M78 661q0 21 18 38t42 17 42-16 19-39q0-7-20-229t-21-226q-2-8-19-8-18 0-20 8-1 3-21 225T78 661zm1-600q0 28 18 44t44 16q23-2 40-17t17-43q0-30-17-45T139 1q-25 0-42 15T79 61z"/><path id="f" stroke-width="1" d="M60 749l4 1h22l28-24q94-85 137-212t43-264q0-68-10-131T261 12t-37-88-38-67-41-51-32-33-23-19l-4-4H63q-3 0-5 3t-3 9q1 1 11 13Q221-64 221 250T66 725q-10 12-11 13 0 8 5 11z"/><path id="b" stroke-width="1" d="M23 287q1 3 2 8t5 22 10 31 15 33 20 30 26 22 33 9q75 0 96-64l10 9q62 55 118 55 65 0 102-47t37-114q0-108-76-199T249-10q-22 0-39 6-11 5-23 15t-19 17l-7 8q-1-1-22-87t-21-87q0-6 8-7t37-3h25q6-7 6-9t-3-18q-3-12-6-15t-13-4h-11q-9 0-34 1t-62 1q-70 0-89-2h-8q-7 7-7 11 2 27 13 35h20q34 1 39 12 3 6 61 239t61 247q1 5 1 14 0 41-25 41-22 0-37-28t-23-61-12-36q-2-2-16-2H29q-6 6-6 9zm155-185q22-76 74-76 30 0 58 23t46 58q18 34 36 108t19 110v6q0 74-61 74-11 0-22-3t-22-9-20-13-17-15-15-15-11-14-8-10l-3-4q0-1-3-14t-11-44-14-52q-26-106-26-110z"/><path id="h" stroke-width="1" d="M60 948q3 2 605 2h602l58-135q59-138 63-146h-40l-7 14q-21 41-56 78-50 48-111 77t-141 43-151 17-183 4H251l8-11q463-633 465-639 1-2 0-6-3-3-264-302L196-356q0-1 211-1h141q89 0 128-1 136 0 220 5t167 21 141 49 103 87q21 26 41 72h40q0-1-7-21t-25-65-31-84l-58-155-601-1q-602 0-605 2-6 2-6 9 0 2 2 6l533 610q0 1-33 45T452 366 322 544L56 909l-1 15q0 21 5 24z"/><path id="i" stroke-width="1" d="M121 647q0 10 4 23t12 13q1 0 72 5t73 6q12 0 12-8 0-7-50-209-50-198-50-205 19 10 29 19 24 18 69 63t70 61q40 27 76 27 30 0 47-19t18-54q0-25-7-42t-19-25-21-11-18-3q-20 0-32 11t-12 29q0 25 16 41t32 21l16 3q-12 12-24 12h-4q-32-3-63-25t-73-64-66-61q2-1 15-3t24-6 26-8 27-14 22-18 17-26 6-33q0-17-5-41t-6-40q0-40 27-40 48 0 78 119 2 8 20 8h4q16 0 16-9 0-5-3-14Q455-11 378-11q-45 0-73 26t-28 75q0 18 3 31t3 24q0 22-14 38t-35 23-34 11-18 3h-2q-12-42-21-81t-14-58-9-37-7-24-7-13-11-9q-13-9-28-9-17 0-26 10t-9 17q0 10 37 160t73 295l37 145q1 13-7 16t-39 5h-18q-3 0-7 3t-3 7z"/><path id="j" stroke-width="1" d="M83 616q0 8 6 14t10 6q8 0 154-68t290-137 144-70q7-5 7-15t-7-15q-2-2-292-139L107 56h-6q-18 2-18 20v3q-1 7 15 16 19 10 150 72 78 37 130 61l248 118-266 126q-69 33-160 76-88 41-102 49t-15 19zm1-734q0 10 15 20h579q16-6 16-20 0-12-15-20H98q-14 7-14 20z"/><path id="k" stroke-width="1" d="M213 578l-13-5q-14-5-40-10t-58-7H83v46h19q47 2 87 15t56 24 28 22q2 3 12 3 9 0 17-6V361l1-300q7-7 12-9t24-4 62-2h26V0h-11q-21 3-159 3-136 0-157-3H88v46h64q16 0 25 1t16 3 8 2 6 5 6 4v517z"/><path id="l" stroke-width="1" d="M247-949v2399h269v-62H309V-887h207v-62H247z"/><path id="m" stroke-width="1" d="M11 1388v62h269V-949H11v62h207v2275H11z"/></defs><g fill="currentColor" stroke="currentColor" stroke-width="0" transform="scale(1 -1)"><use xlink:href="#a"/><use x="963" y="-213" transform="scale(.707)" xlink:href="#b"/><g transform="translate(1304)"><use xlink:href="#c"/><use x="389" xlink:href="#d"/><use x="990" xlink:href="#e"/><use x="1268" xlink:href="#f"/></g><use x="3239" xlink:href="#g"/><g transform="translate(4296)"><use xlink:href="#h"/><g transform="matrix(.707 0 0 .707 85 -1110)"><use xlink:href="#i"/><use x="521" xlink:href="#j"/><use x="1300" xlink:href="#k"/></g></g><g transform="translate(5907)"><use xlink:href="#l"/><g transform="translate(648)"><path stroke="none" d="M0 220h1092v60H0z"/><use x="245" y="676" xlink:href="#d"/><g transform="translate(60 -755)"><use xlink:href="#b"/><use x="712" y="408" transform="scale(.707)" xlink:href="#i"/></g></g><use x="1860" y="-1" xlink:href="#m"/></g></g></svg>